<svg xmlns="http://www.w3.org/2000/svg" width="18" height="18" viewBox="0 0 18 18">
    <path fill="#0AC142" fill-rule="evenodd" d="M13.5 11.625c0 .844-1.038 1.875-2.25 1.875-1.177 0-3.44-1.41-4.39-2.36-.95-.95-2.36-3.212-2.36-4.39 0-1.212 1.031-2.25 1.875-2.25h.75c.143 0 .274.081.337.21 0 0 .45.918.747 1.493.334.651-.293 1.416-.65 1.777.128.326.426.975.957 1.504.53.532 1.178.83 1.505.957.286-.282.836-.744 1.375-.744.144 0 .279.032.4.094.577.297 1.495.747 1.495.747.128.063.209.194.209.337v.75zM0 9a8.96 8.96 0 0 0 1.422 4.857L.025 17.49a.376.376 0 0 0 .476.488l3.75-1.339A8.956 8.956 0 0 0 9 18C13.962 18 18 13.963 18 9s-4.037-9-9-9-9 4.037-9 9z"/>
</svg>
